# xmcd
#
# Track frame offsets:
#	150
#	17855
#	39022
#	50280
#	72775
#	89457
#	107850
#	124217
#	139415
#	156647
#	174355
#	195520
#	206780
#	229272
#	245957
#	264347
#	280717
#	295917
#	313072
#
# Disc length: 4403 seconds
#
# Revision: 1
# Processed by: cddbd v1.5.1PL0 Copyright (c) Steve Scherf et al.
# Submitted via: audiograbber 1.82.02
#
DISCID=1f113113
DTITLE=Top Hits Country - May, 2000 - THC0005
DYEAR=2000
DGENRE=Karaoke
TTITLE0=Yearwood, Trisha w/vocal - Real Live Woman
TTITLE1=Jackson, Alan w/vocal - Blues Man, The
TTITLE2=Paisley, Brad w/vocal - Me Neither
TTITLE3=Herndon, Ty w/vocal - No Mercy
TTITLE4=Raye, Collin w/vocal - Couldn't Last A Moment
TTITLE5=Gill, Vince w/vocal - Let's Make Sure We Kiss Goodbye
TTITLE6=Chesney, Kenny w/vocal - What I Need To Do
TTITLE7=Wynonna w/vocal - Can't Nobody Love You Like I Do
TTITLE8=Judds, The w/vocal - Stuck In Love
TTITLE9=Yearwood, Trisha - Real Live Woman
TTITLE10=Jackson, Alan - Blues Man, The
TTITLE11=Paisley, Brad - Me Neither
TTITLE12=Herndon, Ty - No Mercy
TTITLE13=Raye, Collin - Couldn't Last A Moment
TTITLE14=Gill, Vince - Let's Make Sure We Kiss Goodbye
TTITLE15=Chesney, Kenny - What I Need To Do
TTITLE16=Wynonna - Can't Nobody Love You Like I Do
TTITLE17=Judds, The - Stuck In Love
TTITLE18=Rogers, Kenny - Buy Me A Rose
EXTD=
EXTT0=
EXTT1=
EXTT2=
EXTT3=
EXTT4=
EXTT5=
EXTT6=
EXTT7=
EXTT8=
EXTT9=
EXTT10=
EXTT11=
EXTT12=
EXTT13=
EXTT14=
EXTT15=
EXTT16=
EXTT17=
EXTT18=
PLAYORDER=
